#!OML:ASF H:\Dans Jumps\Project 1\Capture day 1\Session 1\subject.ASF
:FULLY-SPECIFIED
:DEGREES
411
root 0.270408 17.4859 -2.22846 3.57236 1.06271 -0.849546
lowerback -0.661516 -1.6392 -0.818117
upperback 1.59279 -2.20994 2.01022
thorax 2.11511 -1.13584 2.46535
lowerneck -11.3949 0.73161 -1.71849
upperneck 36.2388 1.36567 0.401761
head 14.3039 0.39546 0.6738
rclavicle 3.03147e-015 2.22639e-014
rhumerus -28.8539 -14.2279 -77.1274
rradius 24.3326
rwrist 34.2142
rhand -25.3265 -26.5074
rfingers 7.12502
rthumb 1.19622 -56.4838
lclavicle 3.03147e-015 2.22639e-014
lhumerus -19.5521 -3.52975 88.4908
lradius 20.6235
lwrist 15.3842
lhand -25.5778 -8.3327
lfingers 7.12502
lthumb 0.953491 21.6449
rfemur -17.2925 -4.27335 19.1649
rtibia 31.5362
rfoot -15.8331 -3.48709
rtoes 12.4074
lfemur -16.0794 7.31615 -17.7749
ltibia 27.9434
lfoot -14.0747 1.01108
ltoes 1.51791
412
root 0.274153 17.513 -2.22486 3.83323 1.04263 -0.844968
lowerback -0.705675 -1.62829 -0.816542
upperback 1.59091 -2.19572 2.02373
thorax 2.13779 -1.12898 2.47747
lowerneck -11.437 0.743884 -1.7416
upperneck 36.2205 1.39436 0.393947
head 14.3046 0.403824 0.67926
rclavicle 2.11209e-014 -2.14687e-014
rhumerus -28.8209 -14.3254 -76.8752
rradius 24.0586
rwrist 34.4866
rhand -25.1803 -26.4293
rfingers 7.12502
rthumb 1.33743 -56.4048
lclavicle 2.11209e-014 -2.14687e-014
lhumerus -19.7291 -4.36665 88.5662
lradius 20.8322
lwrist 15.8665
lhand -25.4278 -8.02177
lfingers 7.12502
lthumb 1.09841 21.9552
rfemur -17.1578 -4.16098 19.1527
rtibia 30.768
rfoot -15.5246 -3.48392
rtoes 12.6092
lfemur -15.9198 7.3546 -17.8181
ltibia 27.1118
lfoot -13.7034 0.825213
ltoes 1.94814
413
root 0.277638 17.5368 -2.2223 4.06317 1.028 -0.835327
lowerback -0.722301 -1.61586 -0.823844
upperback 1.60259 -2.17943 2.03609
thorax 2.15911 -1.12132 2.49409
lowerneck -11.4912 0.752015 -1.7746
upperneck 36.2338 1.41587 0.398201
head 14.3225 0.40899 0.690701
rclavicle -7.70291e-015 -1.59028e-014
rhumerus -28.7427 -14.5298 -76.6
rradius 23.745
rwrist 34.8561
rhand -25.0531 -26.3539
rfingers 7.12502
rthumb 1.46028 -56.3287
lclavicle -7.70291e-015 -1.59028e-014
lhumerus -19.8541 -5.10567 88.6226
lradius 20.9582
lwrist 16.0571
lhand -25.3391 -7.72266
lfingers 7.12502
lthumb 1.18406 22.2538
rfemur -17.0322 -4.05042 19.1339
rtibia 30.0736
rfoot -15.2374 -3.49638
rtoes 12.7815
lfemur -15.7741 7.36977 -17.866
ltibia 26.3603
lfoot -13.3454 0.672452
ltoes 2.35985
414
root 0.280925 17.5577 -2.22094 4.26142 1.01786 -0.823559
lowerback -0.707295 -1.60149 -0.836462
upperback 1.62748 -2.16055 2.04863
thorax 2.17632 -1.11256 2.51468
lowerneck -11.5587 0.755903 -1.81596
upperneck 36.2763 1.43026 0.412975
head 14.3571 0.410999 0.707241
rclavicle -1.68967e-015 2.78299e-014
rhumerus -28.6256 -14.8382 -76.3006
rradius 23.4008
rwrist 35.318
rhand -24.9287 -26.2843
rfingers 7.12502
rthumb 1.58039 -56.2582
lclavicle -1.68967e-015 2.78299e-014
lhumerus -19.9253 -5.73388 88.6583
lradius 21.0015
lwrist 15.9643
lhand -25.2986 -7.42246
lfingers 7.12502
lthumb 1.22314 22.5538
rfemur -16.9164 -3.94793 19.1127
rtibia 29.4534
rfoot -14.9676 -3.51853
rtoes 12.9307
lfemur -15.6393 7.36457 -17.9152
ltibia 25.6838
lfoot -13.0015 0.549394
ltoes 2.74876
415
root 0.284132 17.5759 -2.22084 4.4316 1.00748 -0.810935
lowerback -0.662519 -1.58387 -0.852128
upperback 1.66512 -2.13742 2.06209
thorax 2.18982 -1.10182 2.53874
lowerneck -11.6419 0.758789 -1.85613
upperneck 36.3442 1.44402 0.426807
head 14.4072 0.412441 0.723489
rclavicle -3.32964e-015 1.63003e-014
rhumerus -28.4764 -15.2329 -75.9834
rradius 23.0462
rwrist 35.8506
rhand -24.8109 -26.2277
rfingers 7.12502
rthumb 1.69423 -56.2007
lclavicle -3.32964e-015 1.63003e-014
lhumerus -19.9495 -6.24087 88.6734
lradius 20.9895
lwrist 15.6425
lhand -25.296 -7.11605
lfingers 7.12502
lthumb 1.22565 22.8602
rfemur -16.8146 -3.85803 19.0909
rtibia 28.9054
rfoot -14.7135 -3.54129
rtoes 13.0566
lfemur -15.5165 7.34085 -17.9647
ltibia 25.0774
lfoot -12.6718 0.458883
ltoes 3.10177
416
root 0.287316 17.5917 -2.22195 4.57618 0.994335 -0.805074
lowerback -0.589854 -1.56313 -0.861854
upperback 1.71177 -2.11034 2.07808
thorax 2.19656 -1.08907 2.56283
lowerneck -11.7212 0.758696 -1.88893
upperneck 36.42 1.45474 0.431393
head 14.4605 0.412247 0.734261
rclavicle -2.13197e-014 -1.59028e-015
rhumerus -28.3071 -15.7051 -75.6519
rradius 22.6931
rwrist 36.441
rhand -24.6845 -26.1913
rfingers 7.12502
rthumb 1.81626 -56.1633
lclavicle -2.13197e-014 -1.59028e-015
lhumerus -19.9319 -6.64554 88.6714
lradius 20.9324
lwrist 15.1882
lhand -25.3245 -6.7749
lfingers 7.12502
lthumb 1.19818 23.2015
rfemur -16.7277 -3.78195 19.0769
rtibia 28.4256
rfoot -14.475 -3.55836
rtoes 13.1632
lfemur -15.4066 7.29801 -18.0057
ltibia 24.5391
lfoot -12.3605 0.405445
ltoes 3.39916
417
root 0.290517 17.6051 -2.22399 4.69574 0.975199 -0.804537
lowerback -0.492566 -1.53912 -0.866954
upperback 1.76664 -2.07905 2.09543
thorax 2.19756 -1.07419 2.58638
lowerneck -11.7852 0.756967 -1.90198
upperneck 36.4895 1.46412 0.416688
head 14.5079 0.411697 0.733225
rclavicle 4.82053e-015 1.63003e-014
rhumerus -28.1196 -16.2771 -75.3029
rradius 22.3314
rwrist 37.0964
rhand -24.5573 -26.1686
rfingers 7.12502
rthumb 1.9391 -56.1396
lclavicle 4.82053e-015 1.63003e-014
lhumerus -19.8831 -6.93182 88.6505
lradius 20.8443
lwrist 14.6508
lhand -25.3673 -6.39888
lfingers 7.12502
lthumb 1.15682 23.5777
rfemur -16.6521 -3.71666 19.0684
rtibia 28.0084
rfoot -14.256 -3.56516
rtoes 13.2654
lfemur -15.3064 7.23363 -18.0388
ltibia 24.0668
lfoot -12.0709 0.395994
ltoes 3.6239
418
root 0.293661 17.6165 -2.22691 4.79617 0.948871 -0.812727
lowerback -0.374674 -1.51264 -0.865266
upperback 1.82563 -2.0446 2.11493
thorax 2.19086 -1.05762 2.60888
lowerneck -11.8265 0.752424 -1.90294
upperneck 36.5455 1.46934 0.390373
head 14.5441 0.409663 0.724291
rclavicle -4.91992e-015 2.50469e-014
rhumerus -27.9216 -16.9416 -74.9423
rradius 21.9668
rwrist 37.7984
rhand -24.4363 -26.1611
rfingers 7.12502
rthumb 2.05599 -56.1309
lclavicle -4.91992e-015 2.50469e-014
lhumerus -19.8095 -7.12301 88.6167
lradius 20.7249
lwrist 14.1018
lhand -25.4345 -6.06989
lfingers 7.12502
lthumb 1.0919 23.9071
rfemur -16.59 -3.65605 19.069
rtibia 27.6466
rfoot -14.0574 -3.56253
rtoes 13.3684
lfemur -15.2205 7.1442 -18.0596
ltibia 23.659
lfoot -11.8045 0.436159
ltoes 3.7668
419
root 0.296763 17.626 -2.23024 4.88453 0.916669 -0.83012
lowerback -0.249606 -1.48538 -0.854749
upperback 1.88854 -2.00927 2.13459
thorax 2.18377 -1.04048 2.62667
lowerneck -11.8515 0.747121 -1.8858
upperneck 36.5918 1.47083 0.355393
head 14.5724 0.407477 0.70774
rclavicle 2.48481e-016 8.74653e-015
rhumerus -27.7214 -17.6558 -74.5917
rradius 21.6221
rwrist 38.4812
rhand -24.3142 -26.1858
rfingers 7.12502
rthumb 2.17395 -56.1545
lclavicle 2.48481e-016 8.74653e-015
lhumerus -19.7131 -7.22332 88.5683
lradius 20.5763
lwrist 13.5706
lhand -25.5136 -5.75038
lfingers 7.12502
lthumb 1.01553 24.2269
rfemur -16.5433 -3.6001 19.0793
rtibia 27.3335
rfoot -13.8797 -3.54897
rtoes 13.4712
lfemur -15.1526 7.0312 -18.0679
ltibia 23.3106
lfoot -11.5621 0.523966
ltoes 3.82811
420
root 0.299752 17.634 -2.23365 4.9684 0.879216 -0.855236
lowerback -0.127383 -1.45779 -0.837036
upperback 1.95262 -1.97357 2.15301
thorax 2.17917 -1.02303 2.63897
lowerneck -11.8607 0.739735 -1.86835
upperneck 36.6319 1.46477 0.33037
head 14.5941 0.403528 0.693848
rclavicle 1.21259e-014 1.15295e-014
rhumerus -27.5296 -18.4043 -74.2597
rradius 21.3103
rwrist 39.1158
rhand -24.1933 -26.2337
rfingers 7.12502
rthumb 2.29064 -56.2011
lclavicle 1.21259e-014 1.15295e-014
lhumerus -19.6011 -7.25724 88.5098
lradius 20.3859
lwrist 13.0414
lhand -25.6382 -5.54132
lfingers 7.12502
lthumb 0.895194 24.4365
rfemur -16.514 -3.54338 19.0976
rtibia 27.0609
rfoot -13.7198 -3.52837
rtoes 13.5901
lfemur -15.1066 6.90223 -18.0654
ltibia 23.0162
lfoot -11.3441 0.650844
ltoes 3.81864
421
root 0.302773 17.641 -2.23662 5.05567 0.838224 -0.884351
lowerback -0.0221208 -1.43081 -0.811947
upperback 2.01596 -1.93868 2.16769
thorax 2.183 -1.00587 2.64273
lowerneck -11.8622 0.73267 -1.84743
upperneck 36.6756 1.45316 0.318176
head 14.6157 0.399346 0.683709
rclavicle -3.37934e-015 1.19271e-015
rhumerus -27.3548 -19.1303 -73.966
rradius 21.0526
rwrist 39.6376
rhand -24.0657 -26.3196
rfingers 7.12502
rthumb 2.41391 -56.2857
lclavicle -3.37934e-015 1.19271e-015
lhumerus -19.4863 -7.23291 88.4429
lradius 20.1634
lwrist 12.5176
lhand -25.8123 -5.45291
lfingers 7.12502
lthumb 0.727042 24.5256
rfemur -16.5046 -3.49439 19.1202
rtibia 26.8207
rfoot -13.5755 -3.49527
rtoes 13.7164
lfemur -15.0841 6.76738 -18.0576
ltibia 22.7665
lfoot -11.1491 0.801207
ltoes 3.76666
422
root 0.305764 17.6473 -2.23885 5.15182 0.791444 -0.919872
lowerback 0.0551154 -1.40352 -0.77635
upperback 2.07827 -1.90348 2.17851
thorax 2.20101 -0.988411 2.63585
lowerneck -11.8541 0.723525 -1.8298
upperneck 36.7244 1.43227 0.324131
head 14.6373 0.393113 0.68015
rclavicle 4.07509e-015 -6.75868e-015
rhumerus -27.1975 -19.8186 -73.7159
rradius 20.8512
rwrist 40.0321
rhand -23.9203 -26.4297
rfingers 7.12502
rthumb 2.55435 -56.3941
lclavicle 4.07509e-015 -6.75868e-015
lhumerus -19.3749 -7.15429 88.3676
lradius 19.9134
lwrist 11.9835
lhand -26.0229 -5.50009
lfingers 7.12502
lthumb 0.523662 24.479
rfemur -16.5162 -3.44705 19.1503
rtibia 26.605
rfoot -13.4423 -3.45433
rtoes 13.8497
lfemur -15.0847 6.64026 -18.0419
ltibia 22.5514
lfoot -10.9763 0.960322
ltoes 3.69093
